<svg width="20px" height="18px" viewBox="0 0 20 18" version="1.1" xmlns="http://www.w3.org/2000/svg" xmlns:xlink="http://www.w3.org/1999/xlink">
    <!-- Generator: Sketch 48.2 (47327) - http://www.bohemiancoding.com/sketch -->
    <desc>Created with Sketch.</desc>
    <defs></defs>
    <g id="Page-1" stroke="none" stroke-width="1" fill="none" fill-rule="evenodd">
        <g id="bug" fill="#FFFFFF" fill-rule="nonzero">
            <path d="M10,0 C7.7907715,0 6,1.7908325 6,4 L14,4 C14,1.7908325 12.2092285,0 10,0 Z M19,9 L16,9 L16,6.5031738 C16,6.4754638 15.9934082,6.449646 15.9919434,6.4223022 L18.2070313,4.2070922 C18.5976563,3.8165893 18.5976563,3.1834106 18.2070313,2.7929076 C17.8166504,2.4023436 17.1833497,2.4023436 16.7929688,2.7929076 L14.5776368,5.0081176 C14.550293,5.0066528 14.5246582,5 14.4970703,5 L5.5029297,5 C5.4753418,5 5.449707,5.0066528 5.4223633,5.0081177 L3.2070313,2.7929077 C2.8166504,2.4023437 2.1833497,2.4023437 1.7929688,2.7929077 C1.4023438,3.1834106 1.4023438,3.8165893 1.7929688,4.2070923 L4.0080567,6.4223023 C4.0065918,6.449646 4,6.4754639 4,6.5031738 L4,9 L1,9 C0.4477539,9 0,9.4476929 0,10 C0,10.5522461 0.4477539,11 1,11 L4,11 C4,11.7799683 4.15625,12.520813 4.4272461,13.2037354 C4.3830566,13.2353516 4.3325195,13.2532349 4.2929688,13.2929078 L1.4643555,16.1212769 C1.0739746,16.5118409 1.0739746,17.1450196 1.4643555,17.5355225 C1.8549805,17.9260254 2.4882813,17.9260254 2.8786621,17.5355225 L5.4802246,14.93396 C6.3725586,15.9555054 7.6027832,16.6751099 9,16.9100342 L9,7 L11,7 L11,16.9100342 C12.3972168,16.6751099 13.6274414,15.9555054 14.5197754,14.934021 L17.1213379,17.5355225 C17.5117188,17.9260254 18.1450195,17.9260254 18.5356445,17.5355225 C18.9260254,17.1450196 18.9260254,16.5118409 18.5356445,16.1212769 L15.7070312,13.2929078 C15.6674804,13.2532349 15.6169433,13.2353516 15.5727539,13.2037354 C15.84375,12.520813 16,11.7799683 16,11 L19,11 C19.5522461,11 20,10.5522461 20,10 C20,9.4476929 19.5522461,9 19,9 Z" id="Shape"></path>
        </g>
    </g>
</svg>